# xmcd CD database file
#
# Track frame offsets:
#	150
#	39485
#	73459
#	123091
#	154209
#	195319
#	238803
#	267162
#	315189
#
# Disc length: 4728 seconds
#
# Revision: 8
# Processed by: cddbd v1.5.2PL0 Copyright (c) Steve Scherf et al.
# Submitted via: CDex 1.51
#
DISCID=75127609
DTITLE=Moonlight Walk Jazz Quartet - Thanks to B.H.
DYEAR=2007
DGENRE=Jazz
TTITLE0=Rainbow Blues
TTITLE1=Reggae
TTITLE2=Minor C
TTITLE3=Coraz Wiecej
TTITLE4=F-Song
TTITLE5=Nietoperz
TTITLE6=Samba Dorki
TTITLE7=Spotkanie Burz
TTITLE8=Ty Wiesz, Panie
EXTD=YEAR: 2007
EXTT0=
EXTT1=
EXTT2=
EXTT3=
EXTT4=
EXTT5=
EXTT6=
EXTT7=
EXTT8=
PLAYORDER=
